<svg width="1143" height="1143" viewBox="0 0 1143 1143" fill="none" xmlns="http://www.w3.org/2000/svg">
<rect width="1143" height="1143" fill="white"/>
<path fill-rule="evenodd" clip-rule="evenodd" d="M571.77 0C256.46 0 0 256.46 0 571.77C0 886.54 256.46 1143 571.77 1143C886.54 1143 1143 886.54 1143 571.77C1142.46 256.46 886.54 0 571.77 0ZM571.77 1113.84C272.117 1113.84 28.6155 870.343 28.6155 571.23C28.6155 272.117 272.117 28.6155 571.77 28.6155C870.883 28.6155 1114.38 272.117 1114.38 571.77C1113.84 870.883 870.883 1113.84 571.77 1113.84Z" fill="#217EFA"/>
<path fill-rule="evenodd" clip-rule="evenodd" d="M336.879 229.494C475.097 167.944 643.55 172.263 733.716 212.217C762.332 225.175 781.229 233.273 789.867 248.931C695.922 223.555 655.969 219.236 577.141 221.395C465.379 223.555 316.902 267.828 260.211 301.303L235.375 332.618C317.442 284.025 469.698 252.71 554.464 250.011C648.95 248.931 722.378 257.57 789.867 281.866C786.088 299.143 777.449 307.782 762.872 316.42C493.454 269.448 334.179 325.059 190.022 419.004L179.224 449.779C339.578 339.637 536.647 309.401 726.157 342.336C658.128 366.092 577.141 371.492 509.112 387.149C450.801 400.647 420.026 404.426 342.818 430.342C264.53 456.258 218.098 482.714 188.942 516.189C174.904 532.386 164.646 550.743 161.946 570.18C160.867 582.058 161.406 592.857 165.186 603.115C168.425 612.294 175.444 621.472 183.543 630.651C174.364 646.308 166.266 666.825 179.764 690.581C185.703 701.92 200.82 712.718 215.398 723.516L211.079 735.394C208.919 749.432 207.299 765.63 216.478 779.667C232.135 805.043 251.572 821.241 281.807 837.438C286.667 857.955 293.686 874.692 309.343 889.27C342.818 920.045 418.406 979.976 552.305 989.154C652.729 995.633 724.538 965.398 752.073 951.9L785.008 934.623C728.857 956.76 634.372 970.257 557.164 963.778C444.862 954.6 344.438 881.171 332.02 860.115C335.799 862.814 341.198 864.974 346.057 866.594C477.797 929.764 647.33 964.318 864.376 875.772L882.193 858.495C684.584 920.045 511.811 917.886 326.081 820.701C328.24 811.522 332.02 803.424 340.658 796.945C388.171 818.001 434.063 835.279 489.135 846.617C553.925 858.495 627.893 861.195 688.903 858.495C750.454 855.795 871.934 825.56 929.165 795.325C934.565 790.466 937.264 782.907 942.123 777.508C829.821 818.541 696.462 837.438 616.015 831.499C537.187 825.56 467.538 816.382 374.673 774.268C392.49 767.249 410.847 761.31 429.204 755.911C490.215 774.268 552.305 785.606 625.193 788.846C698.082 792.085 867.615 765.09 974.518 700.3C977.758 691.121 980.997 680.863 980.997 680.863C980.997 680.863 832.521 760.23 664.067 760.23C585.24 760.23 537.187 748.892 501.553 740.254C580.92 725.676 680.265 713.798 792.567 685.182C849.258 670.605 919.447 637.67 951.302 609.594C978.298 585.298 999.354 553.443 992.335 521.048C990.716 512.409 978.838 491.893 964.26 484.874C978.298 467.057 976.678 451.939 975.058 438.441C973.438 428.183 969.119 417.384 963.18 407.126C953.462 394.168 941.583 383.37 927.546 375.271C930.245 361.233 928.626 347.195 922.147 334.238C908.109 310.481 883.273 289.964 840.08 268.368C837.92 259.729 832.521 248.391 823.342 237.053C769.351 183.601 680.805 157.685 605.756 156.605C601.437 156.605 597.658 156.605 593.338 156.605C505.872 156.605 435.683 176.042 392.49 196.559C371.433 207.357 354.156 217.616 336.879 229.494ZM835.76 301.843C854.117 313.721 875.714 331.538 877.874 349.895C857.897 342.336 836.84 334.777 816.323 329.378C822.802 322.359 833.061 311.021 835.76 301.843ZM736.416 384.45C759.092 375.811 774.21 366.632 787.168 355.834C816.863 363.933 844.399 373.651 867.075 383.37C863.296 389.309 840.619 409.826 833.6 409.826C833.061 409.826 833.061 409.826 832.521 409.826C801.206 401.187 773.67 390.929 736.416 384.45ZM914.048 410.905C931.865 426.023 937.264 436.821 928.625 453.019C916.747 444.38 904.329 440.061 890.291 433.042C898.93 426.563 907.029 419.544 914.048 410.905ZM365.494 471.376C448.101 447.08 544.746 428.183 631.672 417.924C691.603 410.366 723.458 417.384 780.149 432.502C634.372 471.376 490.215 483.794 352.536 524.288C241.854 556.682 212.158 597.176 212.158 597.176C163.026 529.687 333.099 481.634 365.494 471.376ZM443.242 552.903C565.263 526.447 679.185 510.25 725.617 498.372C782.309 484.334 822.262 471.376 849.798 457.878C850.878 455.718 896.231 477.855 900.55 482.714C885.432 495.132 864.376 505.93 841.159 514.029C772.05 539.405 645.71 565.321 578.761 575.579C511.271 586.918 455.12 595.556 380.612 614.993C337.419 626.332 308.263 639.829 287.207 653.327C271.549 644.149 262.371 641.449 247.793 629.571C299.625 585.838 404.908 561.542 443.242 552.903ZM412.467 659.806C528.549 631.191 631.132 626.332 772.59 587.998C840.619 570.18 890.292 550.743 921.067 526.987C925.386 522.668 930.245 519.428 935.104 515.649C976.138 578.819 822.262 627.951 716.979 650.628C658.668 662.506 578.221 677.084 551.765 681.403C483.196 692.741 460.519 698.68 413.007 712.718C389.251 703.539 365.494 693.281 343.898 682.483C366.034 673.304 389.79 665.745 412.467 659.806ZM251.572 680.863C246.713 684.642 240.774 688.962 236.455 693.281C226.196 687.342 215.398 674.384 220.797 661.966C231.055 668.985 239.154 674.384 251.572 680.863ZM299.625 705.699C319.602 714.878 340.118 723.516 359.015 732.155C346.057 737.014 333.639 742.953 322.301 749.972C306.644 741.333 290.986 732.695 275.328 723.516C281.807 717.577 290.446 711.638 299.625 705.699ZM292.066 774.808C287.207 781.287 283.967 786.686 282.347 793.165C265.61 779.127 258.051 767.789 258.591 755.371C269.389 762.93 280.728 768.869 292.066 774.808Z" fill="#217EFA"/>
</svg>
