<svg width="199" height="199" viewBox="0 0 199 199" fill="none" xmlns="http://www.w3.org/2000/svg">
<path fill-rule="evenodd" clip-rule="evenodd" d="M99.2133 0C44.5008 0 0 44.5008 0 99.2133C0 153.832 44.5008 198.333 99.2133 198.333C153.832 198.333 198.333 153.832 198.333 99.2133C198.239 44.5008 153.832 0 99.2133 0ZM99.2133 193.274C47.2176 193.274 4.96535 151.022 4.96535 99.1196C4.96535 47.2176 47.2176 4.96535 99.2133 4.96535C151.115 4.96535 193.367 47.2176 193.367 99.2133C193.274 151.115 151.115 193.274 99.2133 193.274Z" fill="#217EFA"/>
<path fill-rule="evenodd" clip-rule="evenodd" d="M58.4551 39.8214C82.4386 29.1412 111.669 29.8907 127.314 36.8235C132.279 39.0719 135.558 40.4772 137.057 43.1941C120.756 38.7909 113.823 38.0414 100.145 38.4161C80.7523 38.7909 54.9887 46.4731 45.1517 52.2816L40.8421 57.7154C55.0824 49.2837 81.5018 43.8499 96.2104 43.3815C112.605 43.1941 125.347 44.6931 137.057 48.9089C136.402 51.9069 134.903 53.4059 132.373 54.9048C85.624 46.7542 57.9866 56.4038 32.9725 72.7051L31.0988 78.0452C58.9235 58.9333 93.1188 53.6869 126.003 59.4017C114.198 63.5239 100.145 64.4608 88.3408 67.1777C78.2228 69.5198 72.8827 70.1756 59.4856 74.6725C45.9012 79.1694 37.8442 83.7601 32.7852 89.5686C30.3493 92.3791 28.5693 95.5645 28.1009 98.9372C27.9135 100.998 28.0072 102.872 28.663 104.652C29.2251 106.245 30.443 107.837 31.8483 109.43C30.2556 112.147 28.8504 115.707 31.1925 119.829C32.223 121.796 34.8463 123.67 37.3758 125.544L36.6263 127.605C36.2515 130.041 35.9705 132.851 37.5631 135.287C40.28 139.69 43.6527 142.501 48.8991 145.312C49.7423 148.872 50.9602 151.776 53.6771 154.305C59.4856 159.646 72.6016 170.045 95.8357 171.637C113.261 172.762 125.721 167.515 130.499 165.173L136.214 162.175C126.471 166.016 110.076 168.358 96.6789 167.234C77.1922 165.641 59.7667 152.9 57.6119 149.246C58.2677 149.715 59.2046 150.09 60.0477 150.371C82.9071 161.332 112.324 167.328 149.986 151.963L153.078 148.965C118.789 159.646 88.8093 159.271 56.5814 142.407C56.9561 140.815 57.6119 139.409 59.1109 138.285C67.3552 141.939 75.3185 144.937 84.8745 146.904C96.1168 148.965 108.952 149.434 119.538 148.965C130.218 148.497 151.298 143.251 161.228 138.004C162.165 137.161 162.634 135.849 163.477 134.913C143.99 142.033 120.85 145.312 106.891 144.281C93.2125 143.251 81.127 141.658 65.0131 134.35C68.1047 133.132 71.29 132.102 74.4753 131.165C85.0618 134.35 95.8357 136.318 108.483 136.88C121.131 137.442 150.548 132.758 169.098 121.515C169.66 119.923 170.222 118.143 170.222 118.143C170.222 118.143 144.459 131.915 115.229 131.915C101.551 131.915 93.2125 129.947 87.0292 128.448C100.801 125.919 118.039 123.858 137.526 118.892C147.363 116.363 159.542 110.648 165.069 105.776C169.754 101.56 173.408 96.0329 172.19 90.4117C171.909 88.9128 169.847 85.3527 167.318 84.1348C169.754 81.0432 169.473 78.42 169.192 76.0778C168.911 74.2978 168.161 72.4241 167.131 70.644C165.444 68.3956 163.383 66.5219 160.947 65.1166C161.416 62.6807 161.135 60.2449 160.01 57.9965C157.575 53.8743 153.265 50.3142 145.77 46.5668C145.395 45.0678 144.459 43.1004 142.866 41.133C133.497 31.8581 118.133 27.3612 105.111 27.1738C104.361 27.1738 103.705 27.1738 102.956 27.1738C87.7787 27.1738 75.5996 30.5465 68.1047 34.1066C64.451 35.9803 61.453 37.7603 58.4551 39.8214ZM145.021 52.3753C148.206 54.4364 151.953 57.528 152.328 60.7133C148.862 59.4017 145.208 58.0901 141.648 57.1533C142.772 55.9354 144.552 53.968 145.021 52.3753ZM127.783 66.7092C131.717 65.2103 134.341 63.6176 136.589 61.7439C141.742 63.1492 146.52 64.8355 150.455 66.5219C149.799 67.5524 145.864 71.1125 144.646 71.1125C144.552 71.1125 144.552 71.1125 144.459 71.1125C139.025 69.6135 134.247 67.8335 127.783 66.7092ZM158.605 71.2998C161.697 73.923 162.634 75.7968 161.135 78.6073C159.074 77.1084 156.919 76.3589 154.483 75.141C155.982 74.0167 157.387 72.7988 158.605 71.2998ZM63.4204 81.7927C77.7543 77.5768 94.5241 74.2978 109.608 72.5178C120.007 71.2062 125.534 72.4241 135.371 75.0473C110.076 81.7927 85.0618 83.9474 61.172 90.9739C41.9664 96.595 36.8137 103.621 36.8137 103.621C28.2882 91.9107 57.7993 83.5727 63.4204 81.7927ZM76.9112 95.9392C98.0842 91.3486 117.852 88.538 125.909 86.4769C135.746 84.0411 142.679 81.7927 147.457 79.4505C147.644 79.0758 155.514 82.9169 156.263 83.7601C153.64 85.9148 149.986 87.7885 145.958 89.1938C133.966 93.5971 112.043 98.094 100.426 99.874C88.7156 101.841 78.9723 103.34 66.0436 106.713C58.5488 108.68 53.4897 111.023 49.836 113.365C47.1191 111.772 45.5264 111.304 42.9969 109.243C51.9908 101.654 70.2595 97.4382 76.9112 95.9392ZM71.5711 114.489C91.7135 109.524 109.514 108.68 134.06 102.029C145.864 98.9372 154.483 95.5645 159.823 91.4423C160.573 90.6928 161.416 90.1307 162.259 89.4749C169.379 100.436 142.679 108.962 124.41 112.896C114.292 114.957 100.333 117.487 95.742 118.236C83.8439 120.204 79.9091 121.234 71.6648 123.67C67.5426 122.078 63.4204 120.298 59.673 118.424C63.5141 116.831 67.6363 115.52 71.5711 114.489ZM43.6527 118.143C42.8095 118.799 41.779 119.548 41.0295 120.298C39.2495 119.267 37.3758 117.019 38.3126 114.864C40.0927 116.082 41.4979 117.019 43.6527 118.143ZM51.9907 122.452C55.4571 124.045 59.0172 125.544 62.2962 127.043C60.0477 127.886 57.893 128.917 55.9256 130.135C53.2087 128.636 50.4918 127.137 47.7749 125.544C48.8991 124.513 50.3981 123.483 51.9907 122.452ZM50.6791 134.444C49.836 135.568 49.2739 136.505 48.9928 137.629C46.0885 135.194 44.7769 133.226 44.8706 131.071C46.7443 132.383 48.7117 133.414 50.6791 134.444Z" fill="#217EFA"/>
</svg>
