<svg width="4113" height="1175" viewBox="0 0 4113 1175" fill="none" xmlns="http://www.w3.org/2000/svg">
<rect x="10" y="10" width="4093" height="1155" fill="white" stroke="#217EFA" stroke-width="20"/>
<path d="M506.229 904.5C506.229 896.2 507.679 888.8 510.579 882.3C513.579 875.8 517.879 870.3 523.479 865.8C529.079 861.3 535.929 857.9 544.029 855.6C552.129 853.2 561.279 852 571.479 852C581.579 852 590.579 853.2 598.479 855.6C606.379 857.9 613.029 861.3 618.429 865.8C623.929 870.3 628.079 875.8 630.879 882.3C633.779 888.8 635.229 896.2 635.229 904.5C635.229 912.8 633.779 920.2 630.879 926.7C628.079 933.2 623.929 938.7 618.429 943.2C613.029 947.7 606.379 951.15 598.479 953.55C590.579 955.85 581.579 957 571.479 957C561.279 957 552.129 955.8 544.029 953.4C535.929 951 529.079 947.55 523.479 943.05C517.879 938.55 513.579 933.05 510.579 926.55C507.679 920.05 506.229 912.7 506.229 904.5ZM521.229 904.5C521.229 910.5 522.129 915.65 523.929 919.95C525.829 924.25 528.779 927.75 532.779 930.45C536.879 933.15 542.079 935.15 548.379 936.45C554.779 937.65 562.479 938.25 571.479 938.25C580.279 938.25 587.779 937.65 593.979 936.45C600.179 935.25 605.229 933.3 609.13 930.6C613.029 927.9 615.829 924.4 617.529 920.1C619.33 915.8 620.23 910.6 620.23 904.5C620.23 898.4 619.33 893.2 617.529 888.9C615.829 884.6 613.029 881.1 609.13 878.4C605.229 875.7 600.179 873.75 593.979 872.55C587.779 871.35 580.279 870.75 571.479 870.75C562.479 870.75 554.779 871.4 548.379 872.7C542.079 873.9 536.879 875.85 532.779 878.55C528.779 881.25 525.829 884.75 523.929 889.05C522.129 893.35 521.229 898.5 521.229 904.5ZM687.688 895.5H646.438V879H742.438V895.5H701.188V954H687.688V895.5ZM756.642 954V879H770.142V921.3L842.742 876.15L851.892 889.95L810.042 915.6C817.742 921.3 824.242 925.65 829.542 928.65C834.942 931.55 839.542 933.65 843.342 934.95C847.242 936.15 850.542 936.85 853.242 937.05C856.042 937.15 858.692 937.25 861.192 937.35V953.85C854.792 954.25 849.092 953.9 844.092 952.8C839.192 951.6 834.392 949.7 829.692 947.1C825.092 944.4 820.292 941.05 815.292 937.05C810.292 933.05 804.492 928.4 797.892 923.1L770.142 940.05V954H756.642ZM875.44 879H888.94V891.15H889.39C893.19 886.05 898.49 882.25 905.29 879.75C912.09 877.25 919.99 876 928.99 876C935.79 876 941.99 877 947.59 879C953.29 881 958.14 883.8 962.14 887.4C966.24 891 969.39 895.35 971.59 900.45C973.79 905.45 974.89 911 974.89 917.1C974.89 923.2 973.79 928.7 971.59 933.6C969.39 938.5 966.24 942.7 962.14 946.2C958.14 949.6 953.24 952.25 947.44 954.15C941.64 956.05 935.19 957 928.09 957C923.99 957 919.99 956.65 916.09 955.95C912.19 955.25 908.54 954.25 905.14 952.95C901.84 951.55 898.84 949.95 896.14 948.15C893.44 946.25 891.19 944.2 889.39 942H888.94V981H875.44V879ZM889.39 916.65C889.39 919.85 890.29 922.8 892.09 925.5C893.89 928.2 896.39 930.55 899.59 932.55C902.79 934.55 906.64 936.15 911.14 937.35C915.64 938.45 920.59 939 925.99 939C937.39 939 946.14 937.05 952.24 933.15C958.34 929.25 961.39 923.7 961.39 916.5C961.39 909.3 958.34 903.75 952.24 899.85C946.14 895.95 937.44 894 926.14 894C920.74 894 915.79 894.6 911.29 895.8C906.79 896.9 902.89 898.45 899.59 900.45C896.39 902.45 893.89 904.85 892.09 907.65C890.29 910.45 889.39 913.45 889.39 916.65ZM989.153 916.5C989.153 903.3 993.653 893.25 1002.65 886.35C1011.75 879.45 1025 876 1042.4 876C1059.8 876 1073 879.45 1082 886.35C1091.1 893.25 1095.65 903.3 1095.65 916.5C1095.65 929.7 1091.1 939.75 1082 946.65C1073 953.55 1059.8 957 1042.4 957C1025 957 1011.75 953.55 1002.65 946.65C993.653 939.75 989.153 929.7 989.153 916.5ZM1002.65 916.5C1002.65 920.6 1003.35 924.1 1004.75 927C1006.25 929.8 1008.55 932.1 1011.65 933.9C1014.85 935.7 1018.95 937 1023.95 937.8C1029.05 938.6 1035.2 939 1042.4 939C1049.6 939 1055.7 938.6 1060.7 937.8C1065.8 937 1069.9 935.7 1073 933.9C1076.2 932.1 1078.5 929.8 1079.9 927C1081.4 924.1 1082.15 920.6 1082.15 916.5C1082.15 912.4 1081.4 908.95 1079.9 906.15C1078.5 903.25 1076.2 900.9 1073 899.1C1069.9 897.3 1065.8 896 1060.7 895.2C1055.7 894.4 1049.6 894 1042.4 894C1035.2 894 1029.05 894.4 1023.95 895.2C1018.95 896 1014.85 897.3 1011.65 899.1C1008.55 900.9 1006.25 903.25 1004.75 906.15C1003.35 908.95 1002.65 912.4 1002.65 916.5ZM1113.62 954V879H1127.12V934.35H1127.57L1186.07 879H1202.57V954H1189.07V899.1H1188.62L1130.12 954H1113.62ZM1136.27 852.75C1136.77 854.85 1138.67 856.4 1141.97 857.4C1145.37 858.3 1150.67 858.75 1157.87 858.75C1164.67 858.75 1169.62 858.3 1172.72 857.4C1175.92 856.5 1177.77 854.95 1178.27 852.75H1190.27C1190.77 859.95 1188.37 865.25 1183.07 868.65C1177.77 872.05 1169.17 873.75 1157.27 873.75C1145.37 873.75 1136.77 872.05 1131.47 868.65C1126.17 865.25 1123.77 859.95 1124.27 852.75H1136.27ZM1264.06 879H1352.56V954H1339.06V895.5H1277.56V954H1264.06V879ZM1365.35 879H1381.85L1413.5 938.25H1414.25L1441.85 879H1459.85V879.75L1425.5 951.6C1421.8 959.3 1417.95 965.7 1413.95 970.8C1410.05 976 1406 980.1 1401.8 983.1C1397.7 986.1 1393.45 988.1 1389.05 989.1C1384.65 990.2 1380.15 990.5 1375.55 990V972C1381.65 972 1387.25 970.7 1392.35 968.1C1397.55 965.5 1402 960.9 1405.7 954.3L1365.35 879.75V879ZM1505.66 895.5H1464.41V879H1560.41V895.5H1519.16V954H1505.66V895.5ZM1574.61 953.85V878.85H1588.11V898.35H1625.91C1633.01 898.35 1639.06 898.9 1644.06 900C1649.06 901 1653.11 902.65 1656.21 904.95C1659.31 907.15 1661.56 910 1662.96 913.5C1664.36 917 1665.06 921.2 1665.06 926.1C1665.06 931.2 1664.36 935.5 1662.96 939C1661.56 942.5 1659.31 945.35 1656.21 947.55C1653.11 949.75 1649.06 951.35 1644.06 952.35C1639.06 953.35 1633.01 953.85 1625.91 953.85H1574.61ZM1588.11 937.35H1634.46C1640.36 937.35 1644.66 936.45 1647.36 934.65C1650.16 932.75 1651.56 929.9 1651.56 926.1C1651.56 922.3 1650.16 919.5 1647.36 917.7C1644.66 915.8 1640.36 914.85 1634.46 914.85H1588.11V937.35ZM1723.58 954V879H1737.08V921.3L1809.68 876.15L1818.83 889.95L1776.98 915.6C1784.68 921.3 1791.18 925.65 1796.48 928.65C1801.88 931.55 1806.48 933.65 1810.28 934.95C1814.18 936.15 1817.48 936.85 1820.18 937.05C1822.98 937.15 1825.63 937.25 1828.13 937.35V953.85C1821.73 954.25 1816.03 953.9 1811.03 952.8C1806.13 951.6 1801.33 949.7 1796.63 947.1C1792.03 944.4 1787.23 941.05 1782.23 937.05C1777.23 933.05 1771.43 928.4 1764.83 923.1L1737.08 940.05V954H1723.58ZM1881.35 879H1969.85V954H1956.35V895.5H1894.85V954H1881.35V879ZM1992.38 879H2005.88V891.15H2006.33C2010.13 886.05 2015.43 882.25 2022.23 879.75C2029.03 877.25 2036.93 876 2045.93 876C2052.73 876 2058.93 877 2064.53 879C2070.23 881 2075.08 883.8 2079.08 887.4C2083.18 891 2086.33 895.35 2088.53 900.45C2090.73 905.45 2091.83 911 2091.83 917.1C2091.83 923.2 2090.73 928.7 2088.53 933.6C2086.33 938.5 2083.18 942.7 2079.08 946.2C2075.08 949.6 2070.18 952.25 2064.38 954.15C2058.58 956.05 2052.13 957 2045.03 957C2040.93 957 2036.93 956.65 2033.03 955.95C2029.13 955.25 2025.48 954.25 2022.08 952.95C2018.78 951.55 2015.78 949.95 2013.08 948.15C2010.38 946.25 2008.13 944.2 2006.33 942H2005.88V981H1992.38V879ZM2006.33 916.65C2006.33 919.85 2007.23 922.8 2009.03 925.5C2010.83 928.2 2013.33 930.55 2016.53 932.55C2019.73 934.55 2023.58 936.15 2028.08 937.35C2032.58 938.45 2037.53 939 2042.93 939C2054.33 939 2063.08 937.05 2069.18 933.15C2075.28 929.25 2078.33 923.7 2078.33 916.5C2078.33 909.3 2075.28 903.75 2069.18 899.85C2063.08 895.95 2054.38 894 2043.08 894C2037.68 894 2032.73 894.6 2028.23 895.8C2023.73 896.9 2019.83 898.45 2016.53 900.45C2013.33 902.45 2010.83 904.85 2009.03 907.65C2007.23 910.45 2006.33 913.45 2006.33 916.65ZM2106.1 916.5C2106.1 903.3 2110.6 893.25 2119.6 886.35C2128.7 879.45 2141.95 876 2159.35 876C2176.75 876 2189.95 879.45 2198.95 886.35C2208.05 893.25 2212.6 903.3 2212.6 916.5C2212.6 929.7 2208.05 939.75 2198.95 946.65C2189.95 953.55 2176.75 957 2159.35 957C2141.95 957 2128.7 953.55 2119.6 946.65C2110.6 939.75 2106.1 929.7 2106.1 916.5ZM2119.6 916.5C2119.6 920.6 2120.3 924.1 2121.7 927C2123.2 929.8 2125.5 932.1 2128.6 933.9C2131.8 935.7 2135.9 937 2140.9 937.8C2146 938.6 2152.15 939 2159.35 939C2166.55 939 2172.65 938.6 2177.65 937.8C2182.75 937 2186.85 935.7 2189.95 933.9C2193.15 932.1 2195.45 929.8 2196.85 927C2198.35 924.1 2199.1 920.6 2199.1 916.5C2199.1 912.4 2198.35 908.95 2196.85 906.15C2195.45 903.25 2193.15 900.9 2189.95 899.1C2186.85 897.3 2182.75 896 2177.65 895.2C2172.65 894.4 2166.55 894 2159.35 894C2152.15 894 2146 894.4 2140.9 895.2C2135.9 896 2131.8 897.3 2128.6 899.1C2125.5 900.9 2123.2 903.25 2121.7 906.15C2120.3 908.95 2119.6 912.4 2119.6 916.5ZM2314.87 907.95C2314.27 905.55 2313.12 903.45 2311.42 901.65C2309.82 899.85 2307.57 898.4 2304.67 897.3C2301.87 896.2 2298.37 895.4 2294.17 894.9C2290.07 894.3 2285.12 894 2279.32 894C2272.02 894 2265.82 894.4 2260.72 895.2C2255.72 896 2251.62 897.3 2248.42 899.1C2245.32 900.9 2243.07 903.25 2241.67 906.15C2240.27 908.95 2239.57 912.4 2239.57 916.5C2239.57 920.6 2240.27 924.1 2241.67 927C2243.07 929.8 2245.37 932.1 2248.57 933.9C2251.77 935.7 2255.92 937 2261.02 937.8C2266.12 938.6 2272.32 939 2279.62 939C2285.32 939 2290.22 938.8 2294.32 938.4C2298.42 937.9 2301.87 937.15 2304.67 936.15C2307.47 935.15 2309.67 933.85 2311.27 932.25C2312.97 930.55 2314.22 928.45 2315.02 925.95H2329.27C2329.17 930.75 2327.87 935.05 2325.37 938.85C2322.97 942.65 2319.52 945.9 2315.02 948.6C2310.62 951.3 2305.27 953.35 2298.97 954.75C2292.77 956.25 2285.77 957 2277.97 957C2261.17 957 2248.32 953.55 2239.42 946.65C2230.52 939.75 2226.07 929.7 2226.07 916.5C2226.07 903.3 2230.52 893.25 2239.42 886.35C2248.42 879.45 2261.47 876 2278.57 876C2286.37 876 2293.37 876.75 2299.57 878.25C2305.87 879.75 2311.17 881.9 2315.47 884.7C2319.87 887.5 2323.22 890.9 2325.52 894.9C2327.92 898.8 2329.12 903.15 2329.12 907.95H2314.87ZM2380.32 895.5H2339.07V879H2435.07V895.5H2393.82V954H2380.32V895.5ZM2441.84 916.5C2441.84 903.3 2446.34 893.25 2455.34 886.35C2464.44 879.45 2477.69 876 2495.09 876C2512.49 876 2525.69 879.45 2534.69 886.35C2543.79 893.25 2548.34 903.3 2548.34 916.5C2548.34 929.7 2543.79 939.75 2534.69 946.65C2525.69 953.55 2512.49 957 2495.09 957C2477.69 957 2464.44 953.55 2455.34 946.65C2446.34 939.75 2441.84 929.7 2441.84 916.5ZM2455.34 916.5C2455.34 920.6 2456.04 924.1 2457.44 927C2458.94 929.8 2461.24 932.1 2464.34 933.9C2467.54 935.7 2471.64 937 2476.64 937.8C2481.74 938.6 2487.89 939 2495.09 939C2502.29 939 2508.39 938.6 2513.39 937.8C2518.49 937 2522.59 935.7 2525.69 933.9C2528.89 932.1 2531.19 929.8 2532.59 927C2534.09 924.1 2534.84 920.6 2534.84 916.5C2534.84 912.4 2534.09 908.95 2532.59 906.15C2531.19 903.25 2528.89 900.9 2525.69 899.1C2522.59 897.3 2518.49 896 2513.39 895.2C2508.39 894.4 2502.29 894 2495.09 894C2487.89 894 2481.74 894.4 2476.64 895.2C2471.64 896 2467.54 897.3 2464.34 899.1C2461.24 900.9 2458.94 903.25 2457.44 906.15C2456.04 908.95 2455.34 912.4 2455.34 916.5ZM2583.26 894.45H2582.81V954H2566.31V879H2588.81L2625.26 927.75H2625.71L2660.81 879H2683.31V954H2669.81V894.45H2669.36L2637.11 939H2616.11L2583.26 894.45ZM2696.01 879H2712.51L2744.16 938.25H2744.91L2772.51 879H2790.51V879.75L2756.16 951.6C2752.46 959.3 2748.61 965.7 2744.61 970.8C2740.71 976 2736.66 980.1 2732.46 983.1C2728.36 986.1 2724.11 988.1 2719.71 989.1C2715.31 990.2 2710.81 990.5 2706.21 990V972C2712.31 972 2717.91 970.7 2723.01 968.1C2728.21 965.5 2732.66 960.9 2736.36 954.3L2696.01 879.75V879ZM2838.54 933.15C2838.54 924.75 2842.14 918.65 2849.34 914.85C2856.64 911.05 2868.19 909.25 2883.99 909.45L2921.64 909.75C2921.44 906.55 2920.69 903.9 2919.39 901.8C2918.09 899.6 2916.09 897.8 2913.39 896.4C2910.69 895 2907.29 894 2903.19 893.4C2899.09 892.8 2894.14 892.5 2888.34 892.5C2877.94 892.5 2870.14 893.45 2864.94 895.35C2859.84 897.25 2856.74 900.3 2855.64 904.5H2841.39C2841.39 895.5 2845.59 888.5 2853.99 883.5C2862.39 878.5 2874.44 876 2890.14 876C2905.24 876 2916.44 879.05 2923.74 885.15C2931.14 891.25 2934.84 899.9 2934.84 911.1V954H2921.34V942.15C2918.94 946.85 2913.99 950.5 2906.49 953.1C2898.99 955.7 2889.49 957 2877.99 957C2864.59 957 2854.64 955.1 2848.14 951.3C2841.74 947.4 2838.54 941.35 2838.54 933.15ZM2852.64 931.05C2852.64 932.55 2853.04 933.85 2853.84 934.95C2854.64 935.95 2855.99 936.75 2857.89 937.35C2859.79 937.95 2862.29 938.4 2865.39 938.7C2868.49 938.9 2872.34 939 2876.94 939C2885.14 939 2892.09 938.65 2897.79 937.95C2903.49 937.15 2908.09 936 2911.59 934.5C2915.19 932.9 2917.79 930.9 2919.39 928.5C2920.99 926.1 2921.74 923.25 2921.64 919.95H2891.49C2884.39 919.95 2878.34 920.15 2873.34 920.55C2868.44 920.95 2864.44 921.6 2861.34 922.5C2858.34 923.3 2856.14 924.4 2854.74 925.8C2853.34 927.2 2852.64 928.95 2852.64 931.05ZM2957.28 879H2970.78V905.4H3032.28V879H3045.78V954H3032.28V921.9H2970.78V954H2957.28V879ZM3064.56 933.15C3064.56 924.75 3068.16 918.65 3075.36 914.85C3082.66 911.05 3094.21 909.25 3110.01 909.45L3147.66 909.75C3147.46 906.55 3146.71 903.9 3145.41 901.8C3144.11 899.6 3142.11 897.8 3139.41 896.4C3136.71 895 3133.31 894 3129.21 893.4C3125.11 892.8 3120.16 892.5 3114.36 892.5C3103.96 892.5 3096.16 893.45 3090.96 895.35C3085.86 897.25 3082.76 900.3 3081.66 904.5H3067.41C3067.41 895.5 3071.61 888.5 3080.01 883.5C3088.41 878.5 3100.46 876 3116.16 876C3131.26 876 3142.46 879.05 3149.76 885.15C3157.16 891.25 3160.86 899.9 3160.86 911.1V954H3147.36V942.15C3144.96 946.85 3140.01 950.5 3132.51 953.1C3125.01 955.7 3115.51 957 3104.01 957C3090.61 957 3080.66 955.1 3074.16 951.3C3067.76 947.4 3064.56 941.35 3064.56 933.15ZM3078.66 931.05C3078.66 932.55 3079.06 933.85 3079.86 934.95C3080.66 935.95 3082.01 936.75 3083.91 937.35C3085.81 937.95 3088.31 938.4 3091.41 938.7C3094.51 938.9 3098.36 939 3102.96 939C3111.16 939 3118.11 938.65 3123.81 937.95C3129.51 937.15 3134.11 936 3137.61 934.5C3141.21 932.9 3143.81 930.9 3145.41 928.5C3147.01 926.1 3147.76 923.25 3147.66 919.95H3117.51C3110.41 919.95 3104.36 920.15 3099.36 920.55C3094.46 920.95 3090.46 921.6 3087.36 922.5C3084.36 923.3 3082.16 924.4 3080.76 925.8C3079.36 927.2 3078.66 928.95 3078.66 931.05ZM3263.55 954V895.5H3210C3209.1 908 3207.7 918.2 3205.8 926.1C3204 933.9 3201.6 940 3198.6 944.4C3195.6 948.7 3192 951.5 3187.8 952.8C3183.7 954.1 3178.95 954.5 3173.55 954V937.5C3178.25 937.5 3182 936.6 3184.8 934.8C3187.7 933 3190 929.9 3191.7 925.5C3193.4 921 3194.65 915 3195.45 907.5C3196.25 900 3196.95 890.5 3197.55 879H3277.05V954H3263.55ZM3299.61 879H3313.11V934.5H3313.56L3372.06 879H3388.56V954H3375.06V899.25H3374.61L3316.11 954H3299.61V879ZM3422.33 928.5C3422.73 930.5 3423.58 932.25 3424.88 933.75C3426.18 935.15 3428.18 936.3 3430.88 937.2C3433.58 938.1 3437.13 938.8 3441.53 939.3C3446.03 939.7 3451.58 939.9 3458.18 939.9C3465.08 939.9 3470.93 939.7 3475.73 939.3C3480.53 938.9 3484.43 938.3 3487.43 937.5C3490.53 936.6 3492.73 935.5 3494.03 934.2C3495.43 932.8 3496.13 931.15 3496.13 929.25C3496.13 927.35 3495.53 925.9 3494.33 924.9C3493.13 923.9 3491.43 923.15 3489.23 922.65C3487.03 922.15 3484.43 921.85 3481.43 921.75C3478.53 921.65 3475.33 921.6 3471.83 921.6H3438.23V909.6H3471.98C3474.78 909.6 3477.43 909.5 3479.93 909.3C3482.43 909.1 3484.63 908.75 3486.53 908.25C3488.53 907.75 3490.08 907.05 3491.18 906.15C3492.38 905.25 3492.98 904.1 3492.98 902.7C3492.98 899.6 3490.33 897.25 3485.03 895.65C3479.83 894.05 3471.08 893.25 3458.78 893.25C3451.68 893.25 3445.88 893.5 3441.38 894C3436.88 894.4 3433.28 895.05 3430.58 895.95C3427.98 896.85 3426.08 898 3424.88 899.4C3423.78 900.8 3422.98 902.5 3422.48 904.5H3408.98C3408.98 895.9 3413.08 889 3421.28 883.8C3429.58 878.6 3442.33 876 3459.53 876C3467.03 876 3473.68 876.65 3479.48 877.95C3485.38 879.25 3490.28 881 3494.18 883.2C3498.18 885.4 3501.23 888 3503.33 891C3505.43 894 3506.48 897.2 3506.48 900.6C3506.48 902.7 3506.18 904.55 3505.58 906.15C3505.08 907.65 3504.38 908.95 3503.48 910.05C3502.68 911.05 3501.73 911.9 3500.63 912.6C3499.63 913.2 3498.63 913.7 3497.63 914.1V914.55C3501.33 915.85 3504.28 917.9 3506.48 920.7C3508.78 923.5 3509.93 926.9 3509.93 930.9C3509.93 939.5 3505.68 946 3497.18 950.4C3488.78 954.8 3475.73 957 3458.03 957C3449.23 957 3441.68 956.35 3435.38 955.05C3429.08 953.85 3423.88 952.05 3419.78 949.65C3415.78 947.25 3412.83 944.3 3410.93 940.8C3409.03 937.2 3408.08 933.1 3408.08 928.5H3422.33ZM3518.96 879H3535.46L3567.11 938.25H3567.86L3595.46 879H3613.46V879.75L3579.11 951.6C3575.41 959.3 3571.56 965.7 3567.56 970.8C3563.66 976 3559.61 980.1 3555.41 983.1C3551.31 986.1 3547.06 988.1 3542.66 989.1C3538.26 990.2 3533.76 990.5 3529.16 990V972C3535.26 972 3540.86 970.7 3545.96 968.1C3551.16 965.5 3555.61 960.9 3559.31 954.3L3518.96 879.75V879Z" fill="black"/>
<rect x="808" y="204" width="462" height="462" rx="50" fill="#217EFA"/>
<path fill-rule="evenodd" clip-rule="evenodd" d="M1039.1 252.262C938.278 252.262 856.277 334.262 856.277 435.079C856.277 535.724 938.278 617.724 1039.1 617.724C1139.74 617.724 1221.74 535.724 1221.74 435.079C1221.57 334.262 1139.74 252.262 1039.1 252.262ZM1039.1 608.402C943.284 608.402 865.427 530.545 865.427 434.907C865.427 339.268 943.284 261.411 1039.1 261.411C1134.73 261.411 1212.59 339.268 1212.59 435.079C1212.42 530.718 1134.73 608.402 1039.1 608.402Z" fill="white"/>
<path fill-rule="evenodd" clip-rule="evenodd" d="M981.77 315.109C979.712 316.164 981.161 319.144 983.376 318.479C1023.03 306.585 1066.15 309.161 1090.87 320.115C1098.31 323.485 1095.64 328.336 1087.65 326.654C1070.97 323.145 1059.19 322.546 1040.81 323.05C1005.31 323.736 958.214 337.714 939.829 348.392C939.587 348.532 939.385 348.712 939.211 348.932C937.636 350.917 940.207 354.013 942.517 352.971C969.782 340.681 1009.9 332.953 1033.56 332.199C1059.3 331.905 1080.15 333.867 1099.1 339.258C1104.73 340.857 1108.32 347.141 1103.85 350.907C1101.72 352.695 1098.67 353.16 1095.93 352.711C1012.9 339.097 963.004 356.468 917.908 385.665C917.34 386.032 916.911 386.579 916.687 387.217C915.705 390.015 918.918 392.501 921.435 390.933C950.907 372.577 983.864 362.21 1017.79 358.884C1036.69 357.03 1037.57 371.788 1019.06 376.048C1000.41 380.364 990.574 381.572 965.887 389.859C940.856 398.145 926.009 406.604 916.687 417.307C912.199 422.486 908.919 428.356 908.056 434.57C907.71 438.368 907.883 441.821 909.091 445.101C911.205 451.09 911.896 457.525 911.495 463.864C911.315 466.711 911.892 469.793 913.752 473.067C915.261 475.948 918.623 478.72 922.279 481.469C923.972 482.742 924.65 484.963 923.926 486.953C923.819 487.248 923.741 487.552 923.695 487.861C923.043 492.24 922.658 497.218 925.491 501.552C927.174 504.278 928.993 506.674 931.033 508.849C939.33 517.693 946.308 528.333 955.184 536.596C965.887 546.436 990.056 565.598 1032.87 568.533C1064.98 570.605 1087.94 560.937 1096.74 556.621L1107.27 551.097C1089.32 558.175 1059.11 562.491 1034.42 560.419C1003.54 557.895 975.46 540.171 965.685 530.979C964.857 530.201 965.846 528.986 966.923 529.346C1008.98 549.512 1063.08 560.557 1132.32 532.414C1132.54 532.327 1132.74 532.198 1132.9 532.036C1134.27 530.711 1132.91 528.411 1131.08 528.94C1072.53 545.867 1020.52 544.631 965.165 517.037C962.431 515.674 960.745 512.586 962.411 510.025C963.732 507.994 966.567 507.689 968.791 508.649C982.726 514.67 996.454 519.619 1012.67 522.958C1033.39 526.756 1057.04 527.619 1076.54 526.756C1096.16 525.896 1134.81 516.29 1153.18 506.654C1153.31 506.589 1153.42 506.513 1153.52 506.416C1154.8 505.188 1152.73 502.56 1151.04 503.125C1116.59 514.671 1077.43 519.911 1053.24 518.124C1032.49 516.561 1013.74 514.297 991.193 506.036C985.453 503.933 985.685 496.305 991.539 494.542C992.825 494.155 994.193 494.164 995.482 494.542C1014.36 500.067 1033.65 503.486 1056.17 504.486C1079.32 505.515 1132.94 497.009 1167.16 476.601C1167.62 476.325 1168.09 475.555 1168.26 475.046C1168.94 473.07 1166.72 471.589 1164.83 472.477C1151.19 478.89 1111.96 495.337 1068.6 495.337C1056.54 495.337 1056.54 482.363 1068.41 480.209C1081.39 477.852 1095.21 475.032 1109.69 471.341C1127.82 466.68 1150.26 456.149 1160.44 447.173C1169.08 439.404 1175.81 429.219 1173.56 418.861C1172.14 411.288 1169 400.837 1168.13 393.182C1168.1 392.936 1168.07 392.691 1168.04 392.448C1167.52 389.168 1166.14 385.715 1164.24 382.435C1163.86 381.924 1163.46 381.424 1163.06 380.934C1157.92 374.713 1154.73 366.345 1151.12 359.13C1147.85 353.594 1142.74 348.608 1134.87 343.637C1128.73 339.763 1124.1 333.698 1119.53 328.056C1102.27 310.966 1073.96 302.679 1049.96 302.334C1048.58 302.334 1047.37 302.334 1045.99 302.334C1018.02 302.334 995.58 308.549 981.77 315.109ZM1121.22 352.928C1122.65 350.978 1125.54 350.085 1127.47 351.55C1129.02 352.731 1130.53 354.013 1131.87 355.368C1135.19 358.705 1131.71 362.137 1127.26 360.621C1125.86 360.146 1124.46 359.686 1123.06 359.247C1120.46 358.433 1119.61 355.128 1121.22 352.928ZM1107.67 378.941C1103.27 377.677 1102.74 370.09 1106.37 367.309C1107.54 366.415 1108.81 366.263 1110.22 366.665C1113.81 367.685 1117.29 368.776 1120.6 369.907C1127.46 372.246 1130.06 383.299 1122.81 383.299C1122.58 383.299 1122.35 383.268 1122.13 383.206C1117.2 381.837 1112.55 380.346 1107.67 378.941ZM1145.78 386.638C1147.37 385.098 1149.96 384.781 1151.47 386.402C1153.13 388.188 1154.11 389.85 1154.4 391.594C1154.89 394.592 1150.98 395.531 1148.26 394.176C1147.75 393.922 1147.23 393.676 1146.71 393.432C1144.06 392.186 1143.68 388.68 1145.78 386.638ZM973.138 402.979C999.551 395.21 1030.45 389.168 1058.25 385.888C1071.28 384.244 1071.67 398.475 1058.76 400.914C1028.23 406.682 998.158 411.319 968.995 419.897C944.709 427.005 929.438 419.01 953.008 409.804C961.756 406.387 969.772 404.045 973.138 402.979ZM997.997 429.046C1037.01 420.587 1073.44 415.408 1088.28 411.61C1103.8 407.768 1115.4 404.178 1123.94 400.516C1126.6 399.377 1127.72 398.261 1130.39 399.36C1137.32 402.207 1139.31 410.56 1132.51 413.692C1130.19 414.757 1127.75 415.737 1125.23 416.617C1103.13 424.73 1062.73 433.017 1041.33 436.297C1019.75 439.922 1001.79 442.684 977.972 448.899C966.869 451.813 958.667 455.174 952.379 458.623C949.705 460.089 946.308 460.112 943.604 458.702C939.102 456.355 939.133 450.556 943.5 447.968C961.218 437.469 987.483 431.415 997.997 429.046ZM988.157 463.227C1025.27 454.078 1058.07 452.524 1103.3 440.267C1125.05 434.57 1140.94 428.356 1150.78 420.76C1152.97 418.563 1156.95 419.398 1157.35 422.479C1159.65 440.093 1116.15 453.695 1085.52 460.293C1066.88 464.091 1041.16 468.752 1032.7 470.133C1012.32 473.501 1004.62 475.379 991.446 479.229C989.427 479.819 987.221 479.722 985.267 478.943C977.677 475.916 978.125 465.961 986.006 463.803C986.726 463.606 987.443 463.414 988.157 463.227ZM933.048 467.926C934.735 468.925 934.89 471.31 933.386 472.568C932.451 473.35 931.126 473.524 930.183 472.751C928.887 471.689 927.716 470.323 927.034 468.818C925.953 466.429 928.866 465.314 931.08 466.718C931.719 467.124 932.369 467.524 933.048 467.926ZM949.591 479.546C951.024 478.571 953.03 478.341 954.611 479.053C956.894 480.082 959.187 481.091 961.459 482.089C965.018 483.652 964.881 488.876 961.492 490.78C960.116 491.553 958.472 491.585 957.09 490.822C954.813 489.564 952.535 488.3 950.257 487.015C947.288 485.339 946.772 481.463 949.591 479.546ZM947.153 498.677C948.464 499.376 948.715 501.216 947.964 502.498C947.064 504.035 944.958 504.535 943.699 503.276C942.824 502.402 942.074 501.555 941.445 500.723C939.478 498.123 942.517 496.144 945.374 497.716C945.965 498.041 946.558 498.361 947.153 498.677Z" fill="white"/>
<path d="M1420.88 345.669H1565.16V374.665H1442.91V499H1420.88V345.669ZM1574.48 466.756C1574.48 453.766 1580.04 444.333 1591.18 438.456C1602.47 432.58 1620.33 429.796 1644.76 430.105L1702.99 430.569C1702.68 425.62 1701.52 421.522 1699.51 418.275C1697.5 414.873 1694.4 412.089 1690.23 409.924C1686.05 407.759 1680.79 406.212 1674.45 405.285C1668.11 404.357 1660.46 403.893 1651.49 403.893C1635.41 403.893 1623.34 405.362 1615.3 408.3C1607.41 411.238 1602.62 415.955 1600.92 422.45H1578.88C1578.88 408.532 1585.38 397.707 1598.37 389.975C1611.36 382.242 1629.99 378.376 1654.27 378.376C1677.62 378.376 1694.94 383.093 1706.23 392.526C1717.68 401.96 1723.4 415.337 1723.4 432.657V499H1702.52V480.674C1698.81 487.943 1691.16 493.587 1679.56 497.608C1667.96 501.629 1653.27 503.639 1635.48 503.639C1614.76 503.639 1599.37 500.701 1589.32 494.825C1579.42 488.793 1574.48 479.437 1574.48 466.756ZM1596.28 463.509C1596.28 465.828 1596.9 467.839 1598.14 469.54C1599.37 471.086 1601.46 472.324 1604.4 473.251C1607.34 474.179 1611.2 474.875 1616 475.339C1620.79 475.648 1626.75 475.803 1633.86 475.803C1646.54 475.803 1657.29 475.262 1666.1 474.179C1674.92 472.942 1682.03 471.164 1687.44 468.844C1693.01 466.37 1697.03 463.277 1699.51 459.565C1701.98 455.854 1703.14 451.446 1702.99 446.343H1656.36C1645.38 446.343 1636.02 446.652 1628.29 447.271C1620.71 447.89 1614.53 448.895 1609.73 450.287C1605.1 451.524 1601.69 453.225 1599.53 455.39C1597.36 457.555 1596.28 460.261 1596.28 463.509ZM1775.5 459.565C1776.12 462.658 1777.43 465.364 1779.44 467.684C1781.45 469.849 1784.55 471.628 1788.72 473.019C1792.9 474.411 1798.39 475.494 1805.19 476.267C1812.15 476.886 1820.73 477.195 1830.94 477.195C1841.61 477.195 1850.66 476.886 1858.08 476.267C1865.5 475.648 1871.53 474.721 1876.17 473.483C1880.97 472.092 1884.37 470.39 1886.38 468.38C1888.55 466.215 1889.63 463.663 1889.63 460.725C1889.63 457.787 1888.7 455.544 1886.84 453.998C1884.99 452.452 1882.36 451.292 1878.96 450.518C1875.56 449.745 1871.53 449.281 1866.9 449.127C1862.41 448.972 1857.46 448.895 1852.05 448.895H1800.09V430.337H1852.28C1856.61 430.337 1860.71 430.183 1864.58 429.873C1868.44 429.564 1871.84 429.023 1874.78 428.249C1877.88 427.476 1880.27 426.394 1881.97 425.002C1883.83 423.61 1884.76 421.832 1884.76 419.667C1884.76 414.873 1880.66 411.238 1872.46 408.764C1864.42 406.29 1850.89 405.053 1831.87 405.053C1820.89 405.053 1811.92 405.439 1804.96 406.212C1798 406.831 1792.43 407.836 1788.26 409.228C1784.24 410.62 1781.3 412.398 1779.44 414.563C1777.74 416.728 1776.5 419.357 1775.73 422.45H1754.85C1754.85 409.151 1761.19 398.48 1773.88 390.439C1786.71 382.397 1806.43 378.376 1833.03 378.376C1844.63 378.376 1854.91 379.381 1863.88 381.392C1873 383.402 1880.58 386.108 1886.61 389.511C1892.8 392.913 1897.52 396.934 1900.76 401.573C1904.01 406.212 1905.63 411.161 1905.63 416.419C1905.63 419.667 1905.17 422.528 1904.24 425.002C1903.47 427.322 1902.39 429.332 1900.99 431.033C1899.76 432.58 1898.29 433.894 1896.59 434.977C1895.04 435.904 1893.49 436.678 1891.95 437.296V437.992C1897.67 440.003 1902.23 443.173 1905.63 447.503C1909.19 451.833 1910.97 457.091 1910.97 463.277C1910.97 476.576 1904.4 486.628 1891.25 493.433C1878.26 500.237 1858.08 503.639 1830.71 503.639C1817.1 503.639 1805.42 502.634 1795.68 500.624C1785.94 498.768 1777.9 495.984 1771.56 492.273C1765.37 488.561 1760.81 483.999 1757.87 478.587C1754.93 473.019 1753.46 466.679 1753.46 459.565H1775.5ZM1940.01 383.016H2076.87V499H2055.99V408.532H1960.88V499H1940.01V383.016ZM2111.72 383.016H2132.6V401.805H2133.29C2139.17 393.918 2147.36 388.042 2157.88 384.175C2168.4 380.309 2180.61 378.376 2194.53 378.376C2205.05 378.376 2214.64 379.923 2223.3 383.016C2232.11 386.108 2239.61 390.439 2245.8 396.006C2252.14 401.573 2257.01 408.3 2260.41 416.187C2263.81 423.919 2265.51 432.502 2265.51 441.936C2265.51 451.369 2263.81 459.875 2260.41 467.452C2257.01 475.03 2252.14 481.525 2245.8 486.938C2239.61 492.196 2232.03 496.294 2223.06 499.232C2214.09 502.17 2204.12 503.639 2193.14 503.639C2186.8 503.639 2180.61 503.098 2174.58 502.016C2168.55 500.933 2162.91 499.387 2157.65 497.376C2152.55 495.211 2147.91 492.737 2143.73 489.953C2139.56 487.015 2136.08 483.845 2133.29 480.442H2132.6V540.754H2111.72V383.016ZM2133.29 441.24C2133.29 446.188 2134.68 450.75 2137.47 454.926C2140.25 459.101 2144.12 462.736 2149.07 465.828C2154.01 468.921 2159.97 471.396 2166.93 473.251C2173.89 474.953 2181.54 475.803 2189.89 475.803C2207.52 475.803 2221.05 472.788 2230.49 466.756C2239.92 460.725 2244.64 452.142 2244.64 441.008C2244.64 429.873 2239.92 421.29 2230.49 415.259C2221.05 409.228 2207.6 406.212 2190.12 406.212C2181.77 406.212 2174.12 407.14 2167.16 408.996C2160.2 410.697 2154.17 413.094 2149.07 416.187C2144.12 419.28 2140.25 422.991 2137.47 427.322C2134.68 431.652 2133.29 436.291 2133.29 441.24ZM2287.57 441.008C2287.57 420.594 2294.53 405.053 2308.45 394.382C2322.52 383.711 2343.01 378.376 2369.92 378.376C2396.83 378.376 2417.24 383.711 2431.16 394.382C2445.23 405.053 2452.27 420.594 2452.27 441.008C2452.27 461.421 2445.23 476.963 2431.16 487.634C2417.24 498.304 2396.83 503.639 2369.92 503.639C2343.01 503.639 2322.52 498.304 2308.45 487.634C2294.53 476.963 2287.57 461.421 2287.57 441.008ZM2308.45 441.008C2308.45 447.348 2309.53 452.761 2311.7 457.246C2314.02 461.576 2317.57 465.133 2322.37 467.916C2327.32 470.7 2333.66 472.71 2341.39 473.947C2349.27 475.185 2358.79 475.803 2369.92 475.803C2381.05 475.803 2390.49 475.185 2398.22 473.947C2406.11 472.71 2412.45 470.7 2417.24 467.916C2422.19 465.133 2425.75 461.576 2427.91 457.246C2430.23 452.761 2431.39 447.348 2431.39 441.008C2431.39 434.667 2430.23 429.332 2427.91 425.002C2425.75 420.517 2422.19 416.883 2417.24 414.099C2412.45 411.316 2406.11 409.305 2398.22 408.068C2390.49 406.831 2381.05 406.212 2369.92 406.212C2358.79 406.212 2349.27 406.831 2341.39 408.068C2333.66 409.305 2327.32 411.316 2322.37 414.099C2317.57 416.883 2314.02 420.517 2311.7 425.002C2309.53 429.332 2308.45 434.667 2308.45 441.008ZM2506.27 406.908H2505.58V499H2480.06V383.016H2514.86L2571.22 458.405H2571.92L2626.2 383.016H2661V499H2640.12V406.908H2639.42L2589.55 475.803H2557.07L2506.27 406.908ZM2688.76 421.058C2688.76 407.14 2690.15 395.155 2692.94 385.103C2695.72 375.051 2700.05 366.778 2705.93 360.283C2711.96 353.787 2719.53 348.993 2728.66 345.9C2737.94 342.808 2748.99 341.261 2761.83 341.261C2769.25 341.261 2776.37 341.57 2783.17 342.189C2790.13 342.808 2796.24 343.117 2801.5 343.117C2805.98 343.117 2809.54 342.653 2812.17 341.725C2814.95 340.797 2816.34 339.019 2816.34 336.39H2839.54C2840.31 347.37 2837.37 355.798 2830.72 361.674C2824.08 367.396 2813.1 370.257 2797.79 370.257C2789.9 370.257 2782.63 369.716 2775.98 368.633C2769.48 367.551 2762.29 367.01 2754.41 367.01C2738.01 367.01 2726.03 370.567 2718.45 377.68C2711.03 384.639 2707.09 395.619 2706.62 410.62H2707.09C2713.12 402.114 2722.01 395.542 2733.76 390.902C2745.51 386.263 2759.12 383.943 2774.59 383.943C2786.19 383.943 2796.55 385.258 2805.67 387.887C2814.8 390.516 2822.53 394.382 2828.87 399.485C2835.21 404.434 2840 410.542 2843.25 417.811C2846.65 425.079 2848.35 433.275 2848.35 442.4C2848.35 460.648 2841.78 474.643 2828.64 484.386C2815.49 493.974 2796.47 498.768 2771.57 498.768C2743.74 498.768 2722.94 492.66 2709.17 480.442C2695.56 468.225 2688.76 448.431 2688.76 421.058ZM2713.35 441.24C2713.35 451.137 2717.91 458.56 2727.03 463.509C2736.16 468.457 2750.85 470.932 2771.11 470.932C2781.62 470.932 2790.44 470.39 2797.55 469.308C2804.67 468.225 2810.39 466.524 2814.72 464.205C2819.2 461.885 2822.37 458.947 2824.23 455.39C2826.24 451.678 2827.25 447.348 2827.25 442.4C2827.25 431.11 2822.68 422.914 2813.56 417.811C2804.59 412.708 2790.52 410.156 2771.34 410.156C2751.7 410.156 2737.09 412.862 2727.5 418.275C2718.07 423.687 2713.35 431.342 2713.35 441.24ZM2870.47 466.756C2870.47 453.766 2876.03 444.333 2887.17 438.456C2898.46 432.58 2916.32 429.796 2940.75 430.105L2998.98 430.569C2998.67 425.62 2997.51 421.522 2995.5 418.275C2993.49 414.873 2990.39 412.089 2986.22 409.924C2982.04 407.759 2976.78 406.212 2970.44 405.285C2964.1 404.357 2956.45 403.893 2947.48 403.893C2931.4 403.893 2919.33 405.362 2911.29 408.3C2903.41 411.238 2898.61 415.955 2896.91 422.45H2874.87C2874.87 408.532 2881.37 397.707 2894.36 389.975C2907.35 382.242 2925.98 378.376 2950.26 378.376C2973.61 378.376 2990.93 383.093 3002.22 392.526C3013.67 401.96 3019.39 415.337 3019.39 432.657V499H2998.51V480.674C2994.8 487.943 2987.15 493.587 2975.55 497.608C2963.95 501.629 2949.26 503.639 2931.47 503.639C2910.75 503.639 2895.36 500.701 2885.31 494.825C2875.41 488.793 2870.47 479.437 2870.47 466.756ZM2892.27 463.509C2892.27 465.828 2892.89 467.839 2894.13 469.54C2895.36 471.086 2897.45 472.324 2900.39 473.251C2903.33 474.179 2907.19 474.875 2911.99 475.339C2916.78 475.648 2922.74 475.803 2929.85 475.803C2942.53 475.803 2953.28 475.262 2962.09 474.179C2970.91 472.942 2978.02 471.164 2983.43 468.844C2989 466.37 2993.02 463.277 2995.5 459.565C2997.97 455.854 2999.13 451.446 2998.98 446.343H2952.35C2941.37 446.343 2932.01 446.652 2924.28 447.271C2916.7 447.89 2910.52 448.895 2905.73 450.287C2901.09 451.524 2897.68 453.225 2895.52 455.39C2893.35 457.555 2892.27 460.261 2892.27 463.509ZM3054.09 383.016H3074.97V423.842H3170.08V383.016H3190.95V499H3170.08V449.359H3074.97V499H3054.09V383.016ZM3225.8 499V383.016H3246.68V448.431L3358.95 378.608L3373.1 399.949L3308.39 439.616C3320.29 448.431 3330.34 455.158 3338.54 459.797C3346.89 464.282 3354.01 467.53 3359.88 469.54C3365.91 471.396 3371.02 472.478 3375.19 472.788C3379.52 472.942 3383.62 473.097 3387.49 473.251V498.768C3377.59 499.387 3368.77 498.845 3361.04 497.144C3353.46 495.288 3346.04 492.35 3338.77 488.329C3331.66 484.154 3324.24 478.973 3316.5 472.788C3308.77 466.602 3299.8 459.411 3289.6 451.214L3246.68 477.427V499H3225.8Z" fill="#217EFA"/>
</svg>
